<?xml version="1.0" encoding="UTF-8"?>
<svg width="20px" height="35px" viewBox="0 0 20 35" version="1.1" xmlns="http://www.w3.org/2000/svg" xmlns:xlink="http://www.w3.org/1999/xlink">
    <!-- Generator: Sketch 48.2 (47327) - http://www.bohemiancoding.com/sketch -->
    <title>help_icon</title>
    <desc>Created with Sketch.</desc>
    <defs></defs>
    <g id="iPhone-8" stroke="none" stroke-width="1" fill="none" fill-rule="evenodd" transform="translate(-269.000000, -615.000000)" opacity="0.754868659">
        <g id="help_icon" transform="translate(269.000000, 615.000000)" fill="#FFFFFF" fill-rule="nonzero">
            <path d="M9.6969697,30.0877193 C8.35809758,30.0877193 7.27272727,31.1873708 7.27272727,32.5438596 C7.27272727,33.9003485 8.35809758,35 9.6969697,35 C11.0358418,35 12.1212121,33.9003485 12.1212121,32.5438596 C12.1212121,31.1873708 11.0358418,30.0877193 9.6969697,30.0877193 Z" id="Shape"></path>
            <path d="M11.4313711,0.767474263 C8.60204299,0.244807985 5.68972515,1.02211343 3.48177977,2.88924154 C1.27383439,4.75636965 -0.00170907487,7.52048946 -7.4911674e-10,10.434305 C-7.4911674e-10,11.7902017 1.08489649,12.8893732 2.42318413,12.8893732 C3.76147178,12.8893732 4.84636827,11.7902017 4.84636827,10.434305 C4.84490837,8.97212467 5.48671734,7.58535654 6.59713421,6.65139374 C7.70755107,5.71743094 9.17103467,5.33345423 10.5893147,5.60395849 C12.5472493,5.9912253 14.0781139,7.54223289 14.4603513,9.52592983 C14.8487006,11.6108916 13.8712951,13.7127314 12.0371672,14.736812 C9.10128208,16.2818717 7.26193277,19.3577969 7.2695524,22.7096457 C7.27404798,23.3499552 7.53417359,23.9611537 7.99066715,24.4039975 C8.44716071,24.8468413 9.06114322,25.0836139 9.69273653,25.0603735 C11.0512723,25.0074166 12.1234621,23.8722357 12.1159207,22.4948273 C12.1783874,21.0080214 13.0416454,19.6760581 14.3634239,19.0270435 C17.961915,17.0265435 19.9265466,12.9465124 19.2678675,8.84178386 C18.6091885,4.73705533 15.4700295,1.4977154 11.4313711,0.755198922 L11.4313711,0.767474263 Z" id="Shape"></path>
        </g>
    </g>
</svg>