<svg width="36px" height="35px" viewBox="0 0 36 35" version="1.1" xmlns="http://www.w3.org/2000/svg" xmlns:xlink="http://www.w3.org/1999/xlink">
  <path stroke="#fff" d="M35.4482247,14.6765425 L18.9487215,0.358646807 C18.3965907,-0.119548936 17.6034093,-0.119548936 17.0512786,0.358646807 L0.551775342,14.6765425 C0.136466582,15.0360338 -0.0664692524,15.6032126 0.0194118062,16.1644281 C0.105292865,16.7256436 0.46694344,17.1956339 0.968133257,17.397358 C1.46932307,17.5990822 2.03390947,17.5018936 2.44921821,17.1424023 L4.50040646,15.3606197 L4.50040646,30.2273681 C4.50040646,32.8632199 6.51506443,35 9.00027098,35 L26.9997291,35 C29.4849356,35 31.4995936,32.8632199 31.4995936,30.2273681 L31.4995936,15.3606197 L33.5507818,17.1424023 C33.9660906,17.5018936 34.5306769,17.5990822 35.0318668,17.397358 C35.5330566,17.1956338 35.8947071,16.7256436 35.9805882,16.1644281 C36.0664693,15.6032126 35.8635334,15.0360338 35.4482247,14.6765425 Z M15.0000903,31.8182454 L15.0000903,23.8638589 C15.0000903,22.9852416 15.671643,22.2729816 16.5000452,22.2729816 L19.4999549,22.2729816 C20.328357,22.2729816 20.9999097,22.9852416 20.9999097,23.8638589 L20.9999097,31.8182454 L15.0000903,31.8182454 Z M28.4996839,30.2273681 C28.4996839,31.1059854 27.8281312,31.8182454 26.9997291,31.8182454 L23.9998194,31.8182454 L23.9998194,23.8638589 C23.9998194,21.2280071 21.9851614,19.091227 19.4999549,19.091227 L16.5000452,19.091227 C14.0148386,19.091227 12.0001807,21.2280071 12.0001807,23.8638589 L12.0001807,31.8182454 L9.00027098,31.8182454 C8.17186879,31.8182454 7.50031614,31.1059854 7.50031614,30.2273681 L7.50031614,12.7595354 L18,3.64778562 L28.4996839,12.7595354 L28.4996839,30.2273681 Z" id="Shape"></path>
</svg>
